# xmcd
#
# Track frame offsets:
#	200
#	13850
#	27960
#	41892
#	55775
#	70092
#	84475
#	97667
#	111552
#	126235
#	140247
#	155237
#	168745
#	182050
#	195857
#	209892
#	225175
#	238970
#
# Disc length: 3364 seconds
#
# Revision: 0
# Processed by: cddbd v1.5.1PL0 Copyright (c) Steve Scherf et al.
# Submitted via: dBpowerAMP V4.0
#
DISCID=060d2212
DTITLE=Uncle Dave Macon - Go Long Mule
DYEAR=1900
DGENRE=Old Time
TTITLE0=Over the Road I'm Bound to Go
TTITLE1=I'm Goin' Away in the Morn
TTITLE2=Go Long Mule
TTITLE3=Oh Baby, You Done Me Wrong
TTITLE4=Jordan Is a Hard Road to Travel
TTITLE5=Grey Cat on the Tennessee Farm
TTITLE6=Over the Mountain
TTITLE7=Hold the Woodpile Down
TTITLE8=Backwater Blues
TTITLE9=Don't Get Weary Children
TTITLE10=She's Got the Money, Too
TTITLE11=Way Down the Old Plank Road
TTITLE12=Carve That Possum
TTITLE13=Old Ties
TTITLE14=Tom and Jerry
TTITLE15=Rock About My Sarah Jane
TTITLE16=Rabbit in the Pea Patch
TTITLE17=Sail Away Ladies
EXTD=
EXTT0=
EXTT1=
EXTT2=
EXTT3=
EXTT4=
EXTT5=
EXTT6=
EXTT7=
EXTT8=
EXTT9=
EXTT10=
EXTT11=
EXTT12=
EXTT13=
EXTT14=
EXTT15=
EXTT16=
EXTT17=
PLAYORDER=
